<?xml version="1.0" standalone="no"?>
<!DOCTYPE svg PUBLIC "-//W3C//DTD SVG 20010904//EN"
 "http://www.w3.org/TR/2001/REC-SVG-20010904/DTD/svg10.dtd">
<svg version="1.0" xmlns="http://www.w3.org/2000/svg"
 width="1024.000000pt" height="1024.000000pt" viewBox="0 0 1024.000000 1024.000000"
 preserveAspectRatio="xMidYMid meet">

<g transform="translate(0.000000,1024.000000) scale(0.100000,-0.100000)"
fill="#000000" stroke="none">
<path d="M0 5120 l0 -5120 5120 0 5120 0 0 5120 0 5120 -5120 0 -5120 0 0
-5120z m7192 655 c-4 -65 -11 -87 -25 -82 -13 4 -22 99 -13 124 3 8 14 13 23
11 15 -3 17 -12 15 -53z m-212 -42 c31 -49 33 -66 9 -71 -18 -3 -73 83 -65
103 9 26 25 17 56 -32z m450 3 c0 -21 -85 -110 -98 -102 -20 12 -14 29 28 78
38 44 70 55 70 24z m-3479 -11 c46 -17 79 -41 79 -59 0 -6 -4 -5 -9 3 -6 9
-11 10 -15 2 -4 -6 -12 -9 -17 -6 -15 10 -10 -7 9 -28 9 -11 -3 -6 -27 11 -71
51 -151 38 -200 -33 -20 -30 -29 -35 -63 -35 -83 0 -141 -107 -88 -160 17 -17
35 -20 123 -21 56 -1 89 -4 72 -6 -66 -8 -78 -13 -65 -28 9 -11 43 -15 133
-18 95 -2 80 -3 -65 -5 -116 -1 -196 2 -210 9 -39 18 -62 59 -66 119 -3 45 0
61 20 90 30 44 83 80 119 80 15 0 32 6 36 13 28 43 108 86 164 87 15 0 46 -7
70 -15z m3297 -111 c84 -42 132 -117 132 -209 0 -85 -32 -86 -45 0 -22 139
-140 216 -260 171 -85 -33 -128 -111 -106 -192 9 -32 8 -41 -5 -54 -14 -13
-17 -13 -29 4 -21 28 -28 97 -15 145 14 52 67 112 123 140 60 30 139 28 205
-5z m-3167 -1 c13 -16 12 -17 -3 -4 -10 7 -18 15 -18 17 0 8 8 3 21 -13z
m1960 7 c18 -10 19 -23 19 -185 0 -95 4 -176 9 -179 5 -3 15 1 22 10 7 9 36
28 63 42 45 24 62 27 146 27 80 0 102 -4 140 -24 61 -32 126 -96 158 -156 27
-50 27 -50 30 -308 l3 -257 -26 -10 c-17 -7 -33 -7 -45 0 -16 9 -18 29 -22
247 -4 236 -4 238 -31 291 -29 56 -85 103 -144 123 -75 24 -184 -9 -238 -73
-53 -63 -57 -85 -63 -341 l-5 -239 -24 -9 c-16 -6 -31 -5 -44 1 -18 10 -19 27
-19 518 0 382 3 511 12 520 15 15 33 15 59 2z m-2002 -44 c-3 -3 -11 5 -18 17
-13 21 -12 21 5 5 10 -10 16 -20 13 -22z m2805 4 c39 -25 46 -33 36 -45 -13
-16 -41 -8 -97 26 -33 21 -39 30 -26 42 13 14 40 6 87 -23z m-2704 10 c8 -5
11 -10 5 -10 -5 0 -17 5 -25 10 -8 5 -10 10 -5 10 6 0 17 -5 25 -10z m-3 -56
l28 -26 -35 23 c-46 29 -45 29 -32 29 6 0 24 -12 39 -26z m79 -20 c16 -39 18
-82 4 -104 -6 -10 -8 -1 -4 30 4 33 0 55 -14 82 -11 21 -15 35 -10 32 6 -4 16
-21 24 -40z m3334 17 c0 -15 -13 -23 -55 -36 -31 -9 -60 -13 -65 -10 -23 14
-7 35 38 49 65 20 82 20 82 -3z m-1990 -20 c5 -11 10 -56 10 -100 l0 -81 94 0
c113 0 126 -4 126 -39 0 -44 -16 -51 -122 -51 -72 0 -98 -3 -98 -12 -5 -368
-3 -434 15 -471 27 -57 74 -88 146 -96 60 -7 79 -20 79 -51 0 -28 -23 -40 -76
-40 -102 0 -182 46 -230 132 l-29 53 -3 243 -3 242 -68 0 c-74 0 -91 10 -91
52 0 31 12 36 100 40 l55 3 3 85 c2 46 8 90 14 97 16 20 66 16 78 -6z m-1572
-118 c-15 -2 -42 -2 -60 0 -18 2 -6 4 27 4 33 0 48 -2 33 -4z m95 0 c-7 -2
-21 -2 -30 0 -10 3 -4 5 12 5 17 0 24 -2 18 -5z m2780 -7 c8 -21 -12 -34 -71
-48 -40 -9 -55 -9 -64 0 -16 16 -3 28 47 46 52 19 82 19 88 2z m423 -7 c8 -6
14 -18 14 -25 0 -11 -17 -14 -70 -14 -56 0 -81 -5 -120 -25 l-50 -25 75 -74
c74 -73 92 -108 59 -120 -10 -4 -37 15 -82 58 -36 36 -83 73 -104 82 -21 9
-38 23 -38 29 0 14 67 77 102 96 70 38 179 47 214 18z m-3149 -35 c-3 -3 -12
-4 -19 -1 -8 3 -5 6 6 6 11 1 17 -2 13 -5z m785 -5 c122 -26 217 -99 270 -207
l33 -66 3 -231 c1 -126 -1 -235 -5 -242 -8 -11 -26 -16 -54 -14 -19 1 -39 41
-39 77 l0 26 -50 -37 c-70 -51 -138 -75 -218 -77 -82 -1 -123 7 -185 39 -105
52 -182 156 -207 276 -41 200 91 402 295 453 65 16 92 16 157 3z m2583 -10
c32 -12 55 -26 55 -35 0 -24 -24 -26 -76 -6 -34 14 -50 26 -52 41 -4 26 3 26
73 0z m-5231 -54 c16 -33 74 -163 128 -290 55 -126 103 -233 107 -237 6 -7 91
175 226 485 41 92 50 107 71 107 12 0 29 -9 36 -19 8 -11 68 -146 133 -300 66
-154 122 -281 126 -281 6 0 10 9 147 326 54 127 105 240 111 252 17 31 68 30
82 -2 11 -24 18 -7 -238 -596 -30 -69 -59 -131 -65 -137 -6 -7 -23 -13 -39
-13 -35 0 -29 -11 -174 323 -59 136 -111 247 -115 247 -7 0 -128 -258 -230
-487 -33 -73 -52 -90 -88 -78 -22 6 -8 -23 -183 383 -76 178 -139 332 -139
342 0 22 27 41 55 37 14 -1 29 -21 49 -62z m5787 55 c23 -13 25 -53 3 -74 -9
-9 -32 -16 -54 -16 -74 0 -132 -38 -173 -115 -21 -37 -22 -56 -25 -282 -3
-224 -5 -242 -23 -259 -16 -14 -24 -15 -44 -6 -13 6 -27 22 -31 36 -3 13 -4
125 -2 248 5 240 10 272 65 350 63 92 215 154 284 118z m-4334 -148 c11 -45
-45 -72 -67 -32 -11 20 -3 45 23 78 9 11 13 10 24 -5 8 -10 16 -28 20 -41z
m146 18 c14 -23 15 -34 7 -50 -27 -50 -82 -3 -60 51 16 37 31 37 53 -1z m160
-2 c17 -36 13 -55 -14 -63 -22 -7 -49 10 -49 31 0 23 23 64 35 64 7 0 19 -14
28 -32z m166 12 c110 -56 145 -196 69 -277 -21 -23 -23 -23 -320 -23 -164 0
-298 -4 -298 -8 0 -5 7 -30 16 -56 22 -64 102 -150 162 -173 96 -37 218 -14
298 57 40 35 88 40 103 12 15 -28 -8 -62 -69 -104 -75 -50 -148 -72 -244 -71
-71 0 -85 4 -154 39 -124 64 -191 165 -207 317 l-7 67 311 0 c185 0 320 4 331
10 49 26 44 123 -11 193 -34 43 -32 44 20 17z m3338 -117 c26 -64 9 -149 -36
-173 -12 -6 -130 -10 -310 -10 -235 0 -291 -3 -291 -13 0 -33 34 -108 66 -145
52 -61 122 -92 208 -92 82 0 133 20 201 76 41 33 46 35 72 22 42 -20 40 -44
-5 -88 -86 -81 -219 -120 -335 -99 -168 30 -294 173 -305 346 l-5 73 314 0
c307 0 313 0 336 22 14 13 27 43 35 79 10 49 14 56 26 46 9 -7 21 -26 29 -44z"/>
<path d="M3960 5695 c11 -13 10 -14 -6 -9 -10 4 -16 4 -12 -1 11 -11 57 -15
64 -4 3 5 -7 14 -21 19 -36 14 -40 13 -25 -5z"/>
<path d="M4759 5239 c-55 -16 -129 -78 -162 -138 -25 -43 -31 -69 -35 -131 -4
-67 -1 -85 20 -131 35 -77 70 -113 140 -148 144 -72 312 -13 384 135 52 107
31 249 -49 332 -57 60 -111 85 -191 88 -39 2 -87 -1 -107 -7z"/>
</g>
</svg>
